<?xml version="1.0" encoding="UTF-8"?>
<svg xmlns="http://www.w3.org/2000/svg" width="67" height="53" viewBox="0 0 67 53" fill="none">
  <path d="M49.1927 14.9885L45.4055 2.36442C45.0448 1.58293 43.602 0.308499 40.7165 1.4627C37.831 2.61691 14.5065 10.9608 3.20494 14.9885M3.20494 14.9885C2.48356 15.1688 1.04081 16.1427 1.04081 18.5954C1.04081 21.048 1.04081 38.4933 1.04081 46.9094C0.860465 47.9915 1.18508 50.1556 3.92632 50.1556C6.66755 50.1556 35.2461 50.1556 49.1927 50.1556M3.20494 14.9885H52.7997C53.8817 14.8683 56.0458 15.4213 56.0458 18.5954C56.0458 21.7694 56.0458 22.082 56.0458 22.3826" stroke="#2D510B" stroke-linejoin="round"></path>
  <path d="M54.0974 52.1394C50.1298 51.1175 42.1947 47.2701 42.1947 40.0564C42.1947 32.8426 42.1947 29.8368 42.1947 29.2357C42.0744 28.7548 42.1947 27.6126 43.6374 26.8912C45.0802 26.1698 51.2119 23.104 54.0974 21.4809" stroke="#2D510B" stroke-linejoin="round"></path>
  <path d="M54.062 52.1394C58.0296 51.1175 65.9648 47.2701 65.9648 40.0564C65.9648 32.8426 65.9648 29.8368 65.9648 29.2357C66.085 28.7548 65.9648 27.6126 64.522 26.8912C63.0792 26.1698 56.9475 23.104 54.062 21.4809" stroke="#2D510B" stroke-linejoin="round"></path>
  <path d="M49.0002 36.0536L52.7875 40.2985L61.0833 31" stroke="#2D510B" stroke-linejoin="round"></path>
  <path d="M1.22119 23.645H49.9141" stroke="#2D510B" stroke-linejoin="round"></path>
  <path d="M1.40161 30.8588H41.9791" stroke="#2D510B" stroke-linejoin="round"></path>
  <path d="M7.53296 41.8598H28.0922" stroke="#2D510B" stroke-linejoin="round"></path>
  <path d="M31.3384 42.0401L38.1915 42.0401" stroke="#2D510B" stroke-linejoin="round"></path>
</svg>
