<?xml version="1.0" encoding="UTF-8"?>
<svg xmlns="http://www.w3.org/2000/svg" width="72" height="71" viewBox="0 0 72 71" fill="none">
  <path d="M20.7771 29.9668L21.8188 29.4599L20.3865 28.066L1.76601 31.3607C1.28856 31.5719 0.542005 32.273 1.37537 33.3881C2.20873 34.5032 5.10815 38.2456 6.45369 39.9774M6.45369 39.9774V69.7556L6.84433 70.1358H46.5593L64.659 66.9679C65.0496 66.7567 65.8309 66.1569 65.8309 65.4473C65.8309 64.7377 65.8309 45.6373 65.8309 36.1759M6.45369 39.9774L15.178 38.8369M65.8309 36.1759L70.9092 29.4599C71.1262 28.8263 71.0915 27.6099 69.2164 27.8126C67.3413 28.0154 56.4555 29.9246 51.247 30.8538L47.6878 36.1759L47.2104 36.8898M65.8309 36.1759L45.9083 38.8369M45.9083 38.8369H15.178M45.9083 38.8369L47.2104 36.8898M15.178 38.8369L23.121 37.443M47.2104 36.8898H37.7048" stroke="#2D510B"></path>
  <path d="M30.7515 34.6259C31.9209 35.8357 32.7452 37.2685 33.128 38.1605C33.2511 37.8742 33.3887 37.4765 33.5177 36.987M30.7515 34.6259C29.8043 33.6461 28.6307 32.8126 27.2819 32.5314C27.9844 32.6623 29.6618 33.2645 30.7515 34.6259ZM30.7515 34.6259C31.6303 32.3568 31.2313 28.2375 22.605 29.9132C23.6622 33.3168 26.7716 39.0245 30.7515 34.6259ZM30.3998 22.8476C31.7064 24.7198 32.966 26.9594 33.5177 29.1277C33.935 30.7674 34.0451 32.3353 33.9911 33.7096M30.3998 22.8476C29.2452 21.1931 28.0539 19.8255 27.2819 19.0476C27.8448 19.5601 29.2566 21.0375 30.3998 22.8476ZM30.3998 22.8476C31.6123 21.3627 32.8942 18.0004 28.3212 16.4294C22.605 14.4658 22.8648 14.204 23.1246 17.084C23.3845 19.964 25.4631 27.5639 30.3998 22.8476ZM33.5177 36.987C34.3231 35.5657 36.0417 33.0734 38.1101 31.2223M33.5177 36.987C33.7418 36.1368 33.94 35.0099 33.9911 33.7096M38.1101 31.2223C39.1558 30.2865 40.2908 29.5145 41.4425 29.1277C40.8665 29.2844 39.3936 29.9226 38.1101 31.2223ZM38.1101 31.2223C37.6619 29.695 37.623 26.5357 41.0527 26.1168C45.3399 25.5931 47.4185 26.1168 46.769 27.1641C46.1194 28.2113 42.7025 36.7205 38.1101 31.2223ZM33.9911 33.7096C33.9408 32.541 33.9837 30.7232 34.2498 28.8121M38.1101 20.6807C37.6205 21.1119 37.1239 21.6119 36.6357 22.1895C35.2947 23.7758 34.5899 26.3701 34.2498 28.8121M38.1101 20.6807C40.0175 19.001 41.8191 18.3664 42.6117 18.2622C41.9491 18.3461 40.1211 18.9473 38.1101 20.6807ZM38.1101 20.6807C37.7919 18.9582 38.2466 15.4607 42.6117 15.2513C48.0681 14.9894 49.4971 14.4658 47.9382 17.084C46.3792 19.7022 42.7025 26.6338 38.1101 20.6807ZM34.2498 28.8121C34.6782 26.2582 35.2224 21.1888 35.0605 16.0367M35.0605 16.0367C34.9828 13.5663 34.7428 11.0769 34.2498 8.83668C34.5219 9.88396 35.0649 12.7902 35.0605 16.0367ZM35.0605 16.0367C33.2471 16.4295 29.7762 15.7487 30.3998 9.88396C31.1793 2.553 32.7856 0.458444 33.5177 1.11299C34.2498 1.76754 39.4938 7.65853 39.3639 11.4549C39.2339 15.2513 36.1298 16.0367 35.0605 16.0367Z" stroke="#2D510B"></path>
  <path d="M45.9382 39.0247V70.1358" stroke="#2D510B"></path>
  <path d="M18.2839 53.7161V47.6667H30.3827V53.7161H18.2839Z" stroke="#2D510B"></path>
  <path d="M18.2839 57.1729H30.3827" stroke="#2D510B"></path>
  <path d="M18.2839 61.4938H25.1975" stroke="#2D510B"></path>
</svg>
