<svg width="19" height="17" viewBox="0 0 19 17" fill="none" xmlns="http://www.w3.org/2000/svg">
<path d="M0.414489 10.2216C1.69845 14.1838 6.44688 16.1227 8.66061 16.5969C4.18894 11.6653 3.73505 6.5334 4.06707 4.58392C4.19989 7.87169 6.66819 11.8901 7.88574 13.4883C7.443 9.44181 9.28776 6.84953 10.2655 6.0592C8.05177 2.51852 4.03021 0.54445 2.29615 0C1.13395 1.75629 -0.869471 6.25942 0.414489 10.2216Z" fill="#648863"/>
<path d="M10.2655 7.21835C7.56475 10.1689 8.73433 14.384 9.65672 16.1227C9.65672 12.6242 13.6783 8.62338 15.6891 7.06029C12.9441 9.54719 11.0403 14.5948 10.4315 16.8077C20.0834 15.0374 19.6554 7.11297 18.2349 3.37208C16.7037 3.42477 12.9662 4.26778 10.2655 7.21835Z" fill="#648863"/>
</svg>
