<?xml version="1.0" encoding="UTF-8"?>
<svg id="Op1" xmlns="http://www.w3.org/2000/svg" viewBox="0 0 580.47 200">
  <defs>
    <style>
      .cls-1 {
        fill: none;
      }

      .cls-2 {
        fill: #277720;
      }

      .cls-3 {
        fill: #2d510b;
      }
    </style>
  </defs>
  <g>
    <path d="m0,91.63h40.12v2.87H3.27v32.44h33.47v2.87H3.27v31.42H0v-69.59Z"/>
    <path d="m91.29,91.63h3.27v66.73h33.67v2.87h-36.94v-69.59Z"/>
    <path d="m292.9,161.22h-3.27v-69.59h19.55c14.12,0,21.29,9.01,21.29,19.65,0,9.31-5.63,16.99-16.48,18.83l19.75,31.11h-3.68l-19.44-30.7h-17.7v30.7Zm15.86-33.57c12.18,0,18.42-6.96,18.42-16.37s-6.24-16.78-18.42-16.78h-15.86v33.16h15.86Z"/>
    <path d="m383.47,91.63h3.27v69.59h-3.27v-69.59Z"/>
    <path d="m439.45,146.89c3.99,7.57,11.15,12.18,20.16,12.18,11.16,0,17.5-5.83,17.5-14.43s-4.5-12.59-14.74-17.5l-6.35-3.07c-9.82-4.81-15.15-9.01-15.15-17.91s7.47-15.35,16.78-15.35c8.39,0,14.02,3.07,18.22,9.82l-2.46,1.43c-3.58-5.73-8.49-8.39-15.76-8.39-7.98,0-13.61,5.32-13.61,12.49,0,7.57,4.2,10.75,13.41,15.25l6.24,3.07c11.67,5.73,16.58,10.75,16.58,20.16,0,10.34-7.68,17.4-20.67,17.4-10.95,0-18.63-5.53-22.92-13.61l2.76-1.54Z"/>
    <path d="m577.2,91.63h3.27v69.59h-3.27v-33.47h-41.55v33.47h-3.27v-69.59h3.27v33.26h41.55v-33.26Z"/>
  </g>
  <g>
    <path class="cls-1" d="m210.98,34.44l-.03-.2c-1.21-9.39-3.7-17.06-7.58-23.26,1.89,5.63,2.82,11.43,2.74,17.14-.11,7.39-1.39,14.71-2.63,21.8-1.22,6.99-2.49,14.23-2.59,21.42,0,.56,0,1.14,0,1.71,0,5.24.29,10.68.92,16.5,1.51-2.24,3.38-4.32,5.58-6.22,1.6-1.38,3.11-3.18,4.49-5.33,2.1-14,1.6-22.97.1-35.5-.3-2.52-.64-5.18-1.02-8.07Z"/>
    <path class="cls-1" d="m199.21,94.37c-.36-2.74-.65-5.39-.88-7.98-.23-1.34-.42-2.64-.63-3.96-.5-3.18-.96-6.31-1.35-9.36-4.67-15.6-10.31-24.58-14.22-29.36,1.15,4.87,2.24,12,3.22,21.1,1.13,10.51,3.85,19.87,6.64,27.22,1.51,3.98,3.04,7.37,4.35,10.02h.15s.58,0,.58,0c.33-2.24.97-4.85,2.15-7.68,0,0,0,0,0,0Z"/>
    <path class="cls-1" d="m220.89,75.73c3.38-9.67,3.56-18.26,2.93-24.37-1.23,8.18-3.79,19.7-9.07,28.07-1.6,2.53-3.37,4.65-5.28,6.3-3.14,2.7-5.51,5.8-7.05,9.19-.1.23-.2.45-.29.67-.98,2.34-1.55,4.54-1.87,6.46h6.93c3.22-4.59,7.45-11.34,11.01-19.49.95-2.18,1.86-4.46,2.69-6.83Z"/>
    <path class="cls-1" d="m198.35,6.91c-.73,6.65-1.73,19.52-1.17,36.55.19,5.83.56,12.15,1.19,18.88.51-4.38,1.26-8.72,2.01-12.96,1.22-6.96,2.47-14.16,2.58-21.3.1-7.09-1.49-14.32-4.6-21.18Z"/>
    <path class="cls-1" d="m216.37,56.3c.17,4.22.1,8.48-.28,13.15,2.84-7.56,4.28-15.92,5-21.56-1.28,2.18-2.85,4.95-4.61,8.27-.03.05-.07.1-.11.15Z"/>
    <polygon class="cls-2" points="200.26 102.06 207.19 102.06 207.19 102.06 200.26 102.06 200.26 102.06"/>
    <polygon class="cls-2" points="197.06 102.07 197.06 102.06 196.48 102.06 197.06 102.07"/>
    <path class="cls-3" d="m224.78,40.71c-.06-.15-.15-.29-.26-.42-.01-.02-.03-.04-.04-.05-.08-.09-.17-.18-.28-.25-.03-.02-.05-.03-.08-.04-.02-.01-.05-.03-.07-.04-.14-.08-.29-.13-.47-.16-.16-.03-.33-.03-.49,0-.01,0-.02,0-.04,0-.16.03-.31.08-.46.16-.02.01-.04.02-.06.03-.13.08-.25.17-.36.29-.02.02-.04.04-.06.07-.03.04-.07.08-.1.12-.12.17-2.46,3.64-6.01,10-.42-5.02-1.09-10.25-1.88-16.36l-.03-.2c-1.67-12.97-5.72-22.89-12.38-30.33-.4-.45-2.68-2.74-3.31-3.17-.21-.14-.44-.28-.7-.32-.87-.14-1.68.44-1.82,1.3-.05.29-3.84,23.63-.93,58.31-7.46-17.72-15.44-23.03-15.86-23.3-.02-.01-.04-.03-.06-.04-.75-.43-1.7-.19-2.14.54-.41.66,0,1.16.3,2.01.79,1.76,2.66,4.23,5.02,26.3,1.69,15.82,6.79,28.94,10.58,36.9h3.7s-.15,0-.15,0c-1.31-2.66-2.84-6.05-4.35-10.02-2.79-7.35-5.51-16.71-6.64-27.22-.98-9.1-2.07-16.23-3.22-21.1,3.92,4.77,9.56,13.76,14.22,29.36.39,3.05.85,6.19,1.35,9.36.21,1.32.4,2.62.63,3.96.23,2.59.52,5.24.88,7.98,0,0,0,0,0,0-1.18,2.83-1.82,5.44-2.15,7.68h3.2c.32-1.92.89-4.12,1.87-6.46.09-.22.19-.45.29-.67,1.54-3.4,3.91-6.49,7.05-9.19,1.91-1.64,3.68-3.76,5.28-6.3,5.28-8.37,7.85-19.89,9.07-28.07.63,6.11.44,14.7-2.93,24.37-.83,2.37-1.74,4.65-2.69,6.83-3.56,8.15-7.79,14.91-11.01,19.5h3.82c4.05-5.94,9.18-14.7,12.87-25.29,7.01-20.09,1.15-35.42.9-36.07Zm-26.42,21.63c-.63-6.73-1-13.05-1.19-18.88-.55-17.03.45-29.9,1.17-36.55,3.1,6.86,4.7,14.09,4.6,21.18-.1,7.14-1.36,14.34-2.58,21.3-.74,4.24-1.49,8.58-2.01,12.96Zm13.54,15.66c-1.38,2.15-2.89,3.94-4.49,5.33-2.2,1.9-4.07,3.98-5.58,6.22-.63-5.81-.92-11.25-.92-16.5,0-.57-.01-1.14,0-1.71.1-7.19,1.36-14.43,2.59-21.42,1.24-7.08,2.52-14.41,2.63-21.8.08-5.71-.85-11.51-2.74-17.14,3.87,6.19,6.37,13.87,7.58,23.26l.03.2c.37,2.89.71,5.54,1.02,8.07,1.5,12.53,2,21.5-.1,35.5Zm4.19-8.56c.38-4.67.45-8.92.28-13.15.03-.05.08-.09.11-.15,1.76-3.32,3.33-6.09,4.61-8.27-.71,5.65-2.16,14-5,21.56Z"/>
  </g>
  <g>
    <path d="m233.75,126.38c0-.59-.02-1.18-.05-1.76h-63.48c-.03.58-.05,1.17-.05,1.76,0,.39.02.78.03,1.16h63.52c.01-.39.03-.77.03-1.16Z"/>
    <polygon points="235.19 136.41 235.19 136.41 235.19 136.41 235.19 136.41"/>
    <path d="m170.45,130.52c.27,2.03.72,4,1.35,5.9h60.32c.63-1.89,1.09-3.87,1.35-5.9h-63.03Z"/>
    <path d="m236.67,126.38c0-9.46-3.8-18.05-9.96-24.32h-2.29s-42.92,0-42.92,0c0,0,0,0,0,0h-4.29c-6.16,6.27-9.96,14.86-9.96,24.32,0,19.14,15.57,34.71,34.71,34.71,15.65,0,28.91-10.42,33.23-24.68,0,0,0,0,0,0,.96-3.18,1.48-6.54,1.48-10.03Zm-34.71,31.79c-14.02,0-25.95-9.13-30.16-21.76-.63-1.89-1.09-3.87-1.35-5.9-.13-.98-.21-1.97-.25-2.97-.01-.39-.03-.77-.03-1.16,0-.59.02-1.18.05-1.76.41-7.5,3.44-14.32,8.19-19.55h47.1c4.74,5.24,7.77,12.05,8.19,19.55.03.58.05,1.17.05,1.76,0,.39-.02.78-.03,1.16-.04,1-.12,1.99-.25,2.97-.27,2.03-.72,4-1.35,5.9-4.21,12.63-16.14,21.76-30.16,21.76Z"/>
  </g>
</svg>
