<svg width="23" height="24" viewBox="0 0 23 24" fill="none" xmlns="http://www.w3.org/2000/svg">
<path d="M19.5401 19.2797C18.1128 20.9582 16.226 22.1446 14.1319 22.6804C12.0378 23.2162 9.83606 23.0758 7.82083 22.2781C5.8056 21.4804 4.07285 20.0632 2.85407 18.216C1.63528 16.3688 0.988511 14.1795 1.00015 11.9406C1.0118 9.70169 1.6813 7.51977 2.91923 5.68634C4.15715 3.85291 5.90454 2.45529 7.92795 1.68019C9.95136 0.905088 12.1544 0.789419 14.2429 1.34864C16.3313 1.90786 18.2056 3.11533 19.6154 4.80974" stroke="#020202" stroke-linecap="round"/>
<path d="M19.6153 12.0001H11.1538M11.1538 12.0001L14.6153 9.46167M11.1538 12.0001L14.6153 14.5386" stroke="#020202"/>
<circle cx="22.1538" cy="12" r="0.846154" fill="#020202"/>
</svg>
