<?xml version="1.0" encoding="UTF-8"?>
<svg xmlns="http://www.w3.org/2000/svg" width="67" height="67" viewBox="0 0 67 67" fill="none">
  <path d="M33.5 1C42.1195 1 50.386 4.4241 56.481 10.519C62.5759 16.614 66 24.8805 66 33.5H61M33.5 1C24.8805 0.999999 16.614 4.4241 10.519 10.519C4.4241 16.614 1 24.8805 1 33.5L6.5 33.5M33.5 1V6.5" stroke="#2D510B" stroke-linejoin="round"></path>
  <path d="M33.5 66.5C42.1195 66.5 50.386 63.0759 56.481 56.981C62.5759 50.886 66 42.6195 66 34H61M33.5 66.5C24.8805 66.5 16.614 63.0759 10.519 56.981C4.4241 50.886 1 42.6195 1 34L6.5 34M33.5 66.5V61" stroke="#2D510B" stroke-linejoin="round"></path>
  <path d="M14.0172 41L14.0372 39.9L20.6572 33.89C21.2439 33.3633 21.6272 32.86 21.8072 32.38C21.9872 31.8933 22.0772 31.3733 22.0772 30.82C22.0772 30.1933 21.9272 29.6233 21.6272 29.11C21.3272 28.5967 20.9205 28.19 20.4072 27.89C19.9005 27.5833 19.3305 27.43 18.6972 27.43C18.0505 27.43 17.4705 27.5867 16.9572 27.9C16.4439 28.2133 16.0372 28.6267 15.7372 29.14C15.4439 29.6533 15.2972 30.2133 15.2972 30.82H14.1372C14.1372 29.9733 14.3405 29.21 14.7472 28.53C15.1539 27.8433 15.7005 27.3 16.3872 26.9C17.0805 26.5 17.8539 26.3 18.7072 26.3C19.5672 26.3 20.3372 26.5067 21.0172 26.92C21.7039 27.3267 22.2472 27.8733 22.6472 28.56C23.0472 29.2467 23.2472 30.0033 23.2472 30.83C23.2472 31.4033 23.1805 31.9167 23.0472 32.37C22.9205 32.8167 22.7172 33.2367 22.4372 33.63C22.1572 34.0167 21.7972 34.4067 21.3572 34.8L15.1072 40.47L14.8672 39.87H23.2472V41H14.0172ZM32.117 41V38.08H25.257V36.95L30.147 26.6H31.437L26.547 36.95H32.117V32.6H33.277V36.95H34.927V38.08H33.277V41H32.117ZM41.3572 26.6H42.5572L38.7172 41H37.5172L41.3572 26.6ZM46.3486 41L51.7486 27.74H44.9586V26.6H52.9886V27.74L47.5886 41H46.3486Z" fill="#2D510B"></path>
</svg>
