<svg width="75" height="52" viewBox="0 0 75 52" fill="none" xmlns="http://www.w3.org/2000/svg">
<path d="M39.121 50.3575C46.4955 42.9803 63.5978 31.8017 73.012 46.1052C66.8227 43.1903 51.3795 39.9598 39.121 50.3575Z" fill="#648863"/>
<path d="M47.3033 40.9438C53.5327 36.9579 67.1577 21.3506 52.2865 5.034C36.3068 -12.4988 64.2394 30.1073 47.3033 40.9438Z" fill="#648863"/>
<path d="M1 44C14.1667 51.8333 44.7 59.4 61.5 27M39.121 50.3575C46.4955 42.9803 63.5978 31.8017 73.012 46.1052C66.8227 43.1903 51.3795 39.9598 39.121 50.3575ZM47.3033 40.9438C53.5327 36.9579 67.1577 21.3506 52.2865 5.034C36.3068 -12.4988 64.2394 30.1073 47.3033 40.9438Z" stroke="#648863" stroke-linecap="round"/>
</svg>
