<svg width="15" height="19" viewBox="0 0 15 19" fill="none" xmlns="http://www.w3.org/2000/svg">
<path fill-rule="evenodd" clip-rule="evenodd" d="M2.81588 1.24647C2.83394 0.831307 3.1083 0.000982293 4.06137 0.000982293H11.0469C11.4621 -0.0170683 12.2924 0.206758 12.2924 1.24647V3.46668C12.3105 3.88184 12.0866 4.71217 11.0469 4.71217H4.06137C3.64621 4.73022 2.81588 4.50639 2.81588 3.46668V1.24647ZM12.9422 2.65441V3.84574C12.9964 4.35116 12.6931 5.36199 11.0469 5.36199H3.68231C3.14079 5.36199 2.05776 5.02625 2.05776 3.68329V2.65441C1.37184 2.61831 0 2.97932 0 4.71217V16.9504C0.0180505 17.6183 0.454874 18.954 2.05776 18.954H12.9422C13.6282 18.954 15 18.5533 15 16.9504V4.71217C14.9458 4.02625 14.4585 2.65441 12.9422 2.65441ZM12.6718 7.90702H2.27469V9.96478H12.6718V7.90702ZM2.27469 11.1562H12.6718V13.214H2.27469V11.1562ZM12.6718 14.4053H2.27469V16.4631H12.6718V14.4053Z" fill="#648863"/>
</svg>
